<?xml version="1.0" encoding="UTF-8" standalone="no"?>
<!-- Created with Inkscape (http://www.inkscape.org/) -->

<svg
   version="1.1"
   id="svg2"
   width="809.6933"
   height="608.69598"
   viewBox="0 0 809.6933 608.69598"
   sodipodi:docname="cost-optimization-publicdomainvectors.org.ai"
   inkscape:export-filename="../../home/antonyjr/Developer/ham/website/static/img/cheap.svg"
   inkscape:export-xdpi="3200"
   inkscape:export-ydpi="3200"
   xmlns:inkscape="http://www.inkscape.org/namespaces/inkscape"
   xmlns:sodipodi="http://sodipodi.sourceforge.net/DTD/sodipodi-0.dtd"
   xmlns="http://www.w3.org/2000/svg"
   xmlns:svg="http://www.w3.org/2000/svg">
  <defs
     id="defs6">
    <clipPath
       clipPathUnits="userSpaceOnUse"
       id="clipPath18">
      <path
         d="M 0,660 H 660 V 0 H 0 Z"
         id="path16" />
    </clipPath>
  </defs>
  <sodipodi:namedview
     id="namedview4"
     pagecolor="#ffffff"
     bordercolor="#cccccc"
     borderopacity="1"
     inkscape:showpageshadow="0"
     inkscape:pageopacity="1"
     inkscape:pagecheckerboard="0"
     inkscape:deskcolor="#d1d1d1"
     showgrid="false" />
  <g
     id="g10"
     inkscape:groupmode="layer"
     inkscape:label="Page 1"
     transform="matrix(1.3333333,0,0,-1.3333333,-30.826494,805.4854)">
    <g
       id="g12"
       transform="translate(-4.1651286,63.083063)">
      <g
         id="g14"
         clip-path="url(#clipPath18)">
        <path
           d="m 227.911,22.311 c 0,0.677 -0.097,1.26 -0.299,1.742 -0.194,0.487 -0.468,0.858 -0.822,1.123 -0.351,0.258 -0.737,0.39 -1.166,0.39 -0.676,0 -1.247,-0.286 -1.713,-0.839 -0.467,-0.561 -0.699,-1.375 -0.699,-2.461 0,-1.022 0.232,-1.814 0.692,-2.376 0.464,-0.567 1.038,-0.855 1.72,-0.855 0.409,0 0.787,0.125 1.137,0.375 0.344,0.246 0.625,0.616 0.835,1.109 0.212,0.498 0.315,1.092 0.315,1.792 m -4.813,3.733 v -0.309 c 0.461,0.594 0.94,1.034 1.437,1.309 0.499,0.28 1.066,0.423 1.695,0.423 0.754,0 1.451,-0.206 2.087,-0.616 0.634,-0.405 1.136,-0.997 1.506,-1.781 0.369,-0.785 0.552,-1.708 0.552,-2.78 0,-0.788 -0.104,-1.519 -0.317,-2.171 -0.212,-0.663 -0.505,-1.218 -0.878,-1.665 -0.372,-0.447 -0.813,-0.795 -1.318,-1.03 -0.508,-0.245 -1.053,-0.364 -1.632,-0.364 -0.705,0 -1.294,0.145 -1.771,0.44 -0.48,0.293 -0.931,0.723 -1.361,1.294 v -3.846 c 0,-1.13 -0.394,-1.689 -1.179,-1.689 -0.462,0 -0.769,0.141 -0.916,0.433 -0.15,0.293 -0.225,0.717 -0.225,1.273 v 11.063 c 0,0.486 0.099,0.854 0.305,1.092 0.206,0.24 0.484,0.364 0.836,0.364 0.348,0 0.632,-0.124 0.851,-0.374 0.218,-0.251 0.328,-0.606 0.328,-1.066"
           style="fill:#f14740;fill-opacity:1;fill-rule:nonzero;stroke:none"
           id="path20" />
        <path
           d="m 238.729,18.508 v 0.326 c -0.297,-0.39 -0.604,-0.712 -0.93,-0.972 -0.324,-0.269 -0.677,-0.464 -1.059,-0.591 -0.386,-0.125 -0.824,-0.191 -1.315,-0.191 -0.592,0 -1.125,0.13 -1.595,0.383 -0.473,0.258 -0.836,0.611 -1.092,1.061 -0.31,0.545 -0.461,1.328 -0.461,2.343 v 5.081 c 0,0.51 0.111,0.896 0.334,1.146 0.222,0.255 0.514,0.385 0.88,0.385 0.373,0 0.672,-0.13 0.9,-0.389 0.227,-0.257 0.341,-0.641 0.341,-1.142 v -4.104 c 0,-0.592 0.049,-1.091 0.14,-1.493 0.101,-0.407 0.272,-0.723 0.525,-0.953 0.245,-0.226 0.582,-0.339 1.007,-0.339 0.418,0 0.808,0.129 1.17,0.385 0.369,0.255 0.636,0.587 0.802,0.999 0.141,0.367 0.207,1.161 0.207,2.388 v 3.117 c 0,0.501 0.114,0.885 0.343,1.142 0.226,0.259 0.522,0.389 0.887,0.389 0.368,0 0.661,-0.13 0.882,-0.385 0.221,-0.25 0.33,-0.636 0.33,-1.146 v -7.424 c 0,-0.488 -0.103,-0.856 -0.318,-1.096 -0.209,-0.247 -0.484,-0.366 -0.821,-0.366 -0.334,0 -0.611,0.128 -0.83,0.377 -0.218,0.257 -0.327,0.608 -0.327,1.069"
           style="fill:#f14740;fill-opacity:1;fill-rule:nonzero;stroke:none"
           id="path22" />
        <path
           d="m 245.852,22.209 c 0,-1.019 0.221,-1.801 0.666,-2.351 0.448,-0.545 1.034,-0.823 1.761,-0.823 0.62,0 1.149,0.282 1.599,0.842 0.448,0.561 0.669,1.358 0.669,2.405 0,0.684 -0.092,1.265 -0.277,1.749 -0.188,0.49 -0.455,0.868 -0.791,1.134 -0.348,0.263 -0.743,0.401 -1.2,0.401 -0.471,0 -0.883,-0.138 -1.25,-0.401 -0.368,-0.266 -0.654,-0.654 -0.865,-1.156 -0.209,-0.5 -0.312,-1.1 -0.312,-1.8 m -0.118,7.617 V 25.91 c 0.457,0.506 0.93,0.885 1.41,1.155 0.48,0.266 1.075,0.402 1.783,0.402 0.814,0 1.528,-0.206 2.145,-0.608 0.613,-0.41 1.092,-0.991 1.429,-1.756 0.342,-0.768 0.509,-1.674 0.509,-2.726 0,-0.779 -0.093,-1.49 -0.281,-2.141 -0.19,-0.646 -0.463,-1.205 -0.822,-1.683 -0.363,-0.476 -0.799,-0.838 -1.311,-1.108 -0.514,-0.255 -1.079,-0.385 -1.695,-0.385 -0.378,0 -0.733,0.046 -1.068,0.141 -0.334,0.093 -0.618,0.214 -0.849,0.371 -0.236,0.149 -0.435,0.309 -0.6,0.469 -0.165,0.165 -0.38,0.408 -0.65,0.733 v -0.25 c 0,-0.486 -0.113,-0.849 -0.336,-1.096 -0.22,-0.247 -0.504,-0.368 -0.843,-0.368 -0.349,0 -0.624,0.121 -0.834,0.368 -0.206,0.255 -0.309,0.613 -0.309,1.096 v 11.192 c 0,0.514 0.101,0.908 0.303,1.173 0.2,0.268 0.478,0.4 0.84,0.4 0.375,0 0.668,-0.128 0.87,-0.383 0.206,-0.252 0.309,-0.609 0.309,-1.08"
           style="fill:#f14740;fill-opacity:1;fill-rule:nonzero;stroke:none"
           id="path24" />
        <path
           d="m 254.743,18.618 v 11.113 c 0,0.516 0.109,0.902 0.327,1.165 0.22,0.261 0.515,0.393 0.887,0.393 0.371,0 0.67,-0.129 0.9,-0.391 0.225,-0.257 0.34,-0.65 0.34,-1.167 V 18.618 c 0,-0.517 -0.117,-0.91 -0.346,-1.173 -0.23,-0.255 -0.529,-0.385 -0.894,-0.385 -0.36,0 -0.649,0.133 -0.876,0.403 -0.226,0.271 -0.338,0.653 -0.338,1.155"
           style="fill:#f14740;fill-opacity:1;fill-rule:nonzero;stroke:none"
           id="path26" />
        <path
           d="m 262.188,26.02 v -7.402 c 0,-0.516 -0.119,-0.903 -0.348,-1.167 -0.235,-0.258 -0.534,-0.391 -0.891,-0.391 -0.361,0 -0.653,0.133 -0.877,0.402 -0.224,0.272 -0.338,0.654 -0.338,1.156 v 7.33 c 0,0.501 0.114,0.885 0.338,1.142 0.224,0.259 0.516,0.389 0.877,0.389 0.357,0 0.656,-0.13 0.891,-0.389 0.229,-0.257 0.348,-0.611 0.348,-1.07 m -1.215,2.652 c -0.34,0 -0.631,0.106 -0.879,0.333 -0.236,0.217 -0.36,0.531 -0.36,0.931 0,0.361 0.124,0.656 0.373,0.897 0.247,0.233 0.537,0.345 0.866,0.345 0.319,0 0.602,-0.104 0.848,-0.316 0.243,-0.212 0.367,-0.525 0.367,-0.926 0,-0.399 -0.121,-0.705 -0.359,-0.925 -0.24,-0.223 -0.524,-0.339 -0.856,-0.339"
           style="fill:#f14740;fill-opacity:1;fill-rule:nonzero;stroke:none"
           id="path28" />
        <path
           d="m 273.521,20.232 c 0,-0.318 -0.09,-0.66 -0.272,-1.022 -0.187,-0.363 -0.465,-0.708 -0.84,-1.036 -0.374,-0.328 -0.846,-0.593 -1.415,-0.79 -0.569,-0.205 -1.213,-0.304 -1.923,-0.304 -1.519,0 -2.702,0.462 -3.554,1.382 -0.852,0.927 -1.277,2.16 -1.277,3.713 0,1.05 0.194,1.982 0.582,2.786 0.39,0.805 0.957,1.433 1.692,1.872 0.735,0.443 1.619,0.663 2.642,0.663 0.637,0 1.222,-0.099 1.752,-0.289 0.531,-0.195 0.981,-0.448 1.347,-0.751 0.37,-0.307 0.65,-0.634 0.849,-0.98 0.197,-0.348 0.29,-0.672 0.29,-0.973 0,-0.303 -0.111,-0.561 -0.327,-0.776 -0.22,-0.215 -0.483,-0.322 -0.796,-0.322 -0.206,0 -0.374,0.061 -0.51,0.17 -0.132,0.105 -0.286,0.278 -0.453,0.527 -0.301,0.472 -0.614,0.831 -0.941,1.074 -0.327,0.235 -0.743,0.359 -1.242,0.359 -0.729,0 -1.314,-0.301 -1.758,-0.89 -0.443,-0.596 -0.663,-1.405 -0.663,-2.429 0,-0.481 0.058,-0.93 0.171,-1.332 0.114,-0.404 0.279,-0.744 0.492,-1.032 0.217,-0.286 0.476,-0.5 0.785,-0.646 0.305,-0.148 0.641,-0.224 1.004,-0.224 0.495,0 0.914,0.118 1.265,0.358 0.352,0.239 0.663,0.602 0.93,1.086 0.153,0.293 0.314,0.516 0.488,0.683 0.175,0.161 0.388,0.239 0.639,0.239 0.299,0 0.548,-0.117 0.748,-0.352 0.193,-0.243 0.295,-0.495 0.295,-0.764"
           style="fill:#f14740;fill-opacity:1;fill-rule:nonzero;stroke:none"
           id="path30" />
        <path
           d="m 277.565,22.282 c 0,-0.693 0.103,-1.282 0.31,-1.773 0.208,-0.489 0.487,-0.853 0.845,-1.099 0.364,-0.25 0.756,-0.375 1.177,-0.375 0.435,0 0.829,0.12 1.184,0.354 0.357,0.235 0.641,0.595 0.857,1.08 0.211,0.484 0.316,1.091 0.316,1.813 0,0.686 -0.105,1.271 -0.316,1.762 -0.216,0.496 -0.501,0.867 -0.865,1.132 -0.363,0.258 -0.759,0.39 -1.189,0.39 -0.448,0 -0.85,-0.138 -1.206,-0.401 -0.35,-0.266 -0.627,-0.649 -0.821,-1.148 -0.194,-0.5 -0.292,-1.071 -0.292,-1.735 m 4.825,-3.758 v 0.25 c -0.328,-0.394 -0.655,-0.713 -0.977,-0.96 -0.318,-0.248 -0.667,-0.435 -1.042,-0.565 -0.372,-0.123 -0.784,-0.189 -1.227,-0.189 -0.585,0 -1.132,0.13 -1.631,0.385 -0.499,0.27 -0.933,0.635 -1.298,1.118 -0.365,0.479 -0.642,1.047 -0.834,1.7 -0.19,0.647 -0.282,1.352 -0.282,2.114 0,1.597 0.376,2.851 1.124,3.746 0.751,0.895 1.736,1.344 2.958,1.344 0.708,0 1.305,-0.13 1.789,-0.389 0.485,-0.249 0.959,-0.64 1.42,-1.168 v 3.783 c 0,0.528 0.1,0.923 0.303,1.192 0.2,0.27 0.483,0.404 0.856,0.404 0.372,0 0.656,-0.123 0.86,-0.368 0.201,-0.246 0.304,-0.614 0.304,-1.095 V 18.524 c 0,-0.488 -0.109,-0.856 -0.326,-1.096 -0.216,-0.247 -0.495,-0.368 -0.838,-0.368 -0.331,0 -0.612,0.125 -0.832,0.379 -0.218,0.25 -0.327,0.61 -0.327,1.085"
           style="fill:#f14740;fill-opacity:1;fill-rule:nonzero;stroke:none"
           id="path32" />
        <path
           d="m 293.903,22.264 c 0,1.04 -0.222,1.855 -0.663,2.436 -0.44,0.58 -1.034,0.875 -1.775,0.875 -0.483,0 -0.902,-0.133 -1.27,-0.391 -0.364,-0.262 -0.647,-0.644 -0.843,-1.153 -0.199,-0.501 -0.298,-1.091 -0.298,-1.767 0,-0.67 0.099,-1.255 0.293,-1.755 0.195,-0.499 0.473,-0.882 0.838,-1.152 0.359,-0.261 0.792,-0.392 1.28,-0.392 0.741,0 1.335,0.288 1.775,0.874 0.441,0.582 0.663,1.392 0.663,2.425 m 2.463,0 c 0,-0.762 -0.114,-1.464 -0.342,-2.115 -0.227,-0.637 -0.556,-1.193 -0.986,-1.658 -0.434,-0.464 -0.95,-0.808 -1.55,-1.063 -0.599,-0.247 -1.278,-0.368 -2.023,-0.368 -0.743,0 -1.41,0.121 -2.006,0.376 -0.593,0.248 -1.107,0.605 -1.543,1.072 -0.434,0.469 -0.762,1.015 -0.991,1.65 -0.224,0.639 -0.334,1.337 -0.334,2.11 0,0.775 0.114,1.485 0.341,2.127 0.229,0.646 0.554,1.195 0.979,1.656 0.427,0.453 0.941,0.807 1.548,1.053 0.608,0.247 1.274,0.375 2.006,0.375 0.744,0 1.42,-0.128 2.023,-0.378 0.604,-0.251 1.123,-0.611 1.555,-1.073 0.433,-0.462 0.761,-1.015 0.983,-1.654 0.23,-0.636 0.34,-1.342 0.34,-2.11"
           style="fill:#f14740;fill-opacity:1;fill-rule:nonzero;stroke:none"
           id="path34" />
        <path
           d="m 306.736,24.378 c -0.183,-0.433 -0.272,-1.194 -0.272,-2.296 v -3.405 c 0,-0.536 -0.115,-0.943 -0.352,-1.214 -0.232,-0.27 -0.543,-0.403 -0.927,-0.403 -0.37,0 -0.669,0.133 -0.899,0.403 -0.231,0.271 -0.345,0.678 -0.345,1.214 v 4.085 c 0,0.643 -0.024,1.144 -0.066,1.505 -0.043,0.353 -0.156,0.648 -0.341,0.877 -0.183,0.229 -0.479,0.344 -0.879,0.344 -0.802,0 -1.329,-0.288 -1.588,-0.868 -0.255,-0.576 -0.379,-1.401 -0.379,-2.479 v -3.464 c 0,-0.535 -0.117,-0.939 -0.346,-1.205 -0.232,-0.279 -0.537,-0.412 -0.91,-0.412 -0.374,0 -0.682,0.133 -0.916,0.412 -0.239,0.266 -0.353,0.67 -0.353,1.201 v 7.335 c 0,0.482 0.103,0.85 0.313,1.097 0.216,0.249 0.495,0.379 0.844,0.379 0.336,0 0.617,-0.118 0.841,-0.352 0.225,-0.234 0.337,-0.556 0.337,-0.971 v -0.244 c 0.424,0.532 0.881,0.926 1.365,1.173 0.485,0.248 1.03,0.377 1.619,0.377 0.618,0 1.143,-0.13 1.589,-0.389 0.446,-0.255 0.809,-0.644 1.095,-1.161 0.415,0.521 0.86,0.916 1.333,1.167 0.476,0.254 0.998,0.383 1.572,0.383 0.676,0 1.252,-0.136 1.736,-0.415 0.487,-0.278 0.849,-0.668 1.089,-1.184 0.211,-0.462 0.314,-1.19 0.314,-2.188 v -5.003 c 0,-0.536 -0.115,-0.943 -0.347,-1.214 -0.238,-0.27 -0.544,-0.403 -0.928,-0.403 -0.372,0 -0.678,0.133 -0.912,0.412 -0.24,0.266 -0.359,0.67 -0.359,1.205 v 4.311 c 0,0.55 -0.022,0.99 -0.066,1.325 -0.045,0.333 -0.166,0.609 -0.366,0.835 -0.196,0.225 -0.498,0.34 -0.897,0.34 -0.323,0 -0.632,-0.103 -0.918,-0.299 -0.296,-0.203 -0.518,-0.472 -0.681,-0.811"
           style="fill:#f14740;fill-opacity:1;fill-rule:nonzero;stroke:none"
           id="path36" />
        <path
           d="m 320.64,22.216 c -0.362,-0.143 -0.885,-0.285 -1.572,-0.442 -0.686,-0.152 -1.163,-0.261 -1.427,-0.336 -0.265,-0.075 -0.515,-0.212 -0.754,-0.421 -0.242,-0.216 -0.361,-0.508 -0.361,-0.884 0,-0.39 0.141,-0.718 0.423,-0.988 0.282,-0.278 0.652,-0.412 1.108,-0.412 0.484,0 0.935,0.114 1.344,0.336 0.412,0.221 0.714,0.51 0.904,0.858 0.222,0.388 0.335,1.026 0.335,1.923 z m 0.16,-3.714 c -0.596,-0.481 -1.169,-0.843 -1.724,-1.078 -0.553,-0.245 -1.176,-0.364 -1.864,-0.364 -0.632,0 -1.183,0.13 -1.661,0.385 -0.478,0.263 -0.844,0.616 -1.103,1.063 -0.257,0.444 -0.387,0.923 -0.387,1.444 0,0.7 0.217,1.296 0.641,1.793 0.423,0.489 1.007,0.821 1.75,0.993 0.156,0.037 0.546,0.119 1.162,0.25 0.62,0.135 1.146,0.252 1.592,0.364 0.438,0.105 0.919,0.239 1.434,0.394 -0.033,0.681 -0.162,1.176 -0.391,1.496 -0.232,0.314 -0.714,0.469 -1.437,0.469 -0.625,0 -1.092,-0.087 -1.412,-0.272 -0.313,-0.176 -0.583,-0.453 -0.806,-0.819 -0.226,-0.361 -0.383,-0.6 -0.476,-0.718 -0.095,-0.116 -0.295,-0.169 -0.597,-0.169 -0.279,0 -0.516,0.09 -0.713,0.273 -0.204,0.186 -0.306,0.421 -0.306,0.711 0,0.45 0.155,0.89 0.46,1.311 0.306,0.428 0.782,0.778 1.43,1.056 0.647,0.276 1.454,0.412 2.42,0.412 1.078,0 1.927,-0.136 2.548,-0.402 0.617,-0.261 1.05,-0.678 1.305,-1.26 0.257,-0.571 0.385,-1.34 0.385,-2.287 0,-0.601 0,-1.116 -0.006,-1.531 -0.005,-0.422 -0.006,-0.889 -0.013,-1.402 0,-0.481 0.076,-0.986 0.23,-1.504 0.149,-0.52 0.226,-0.861 0.226,-1.008 0,-0.262 -0.122,-0.505 -0.356,-0.718 -0.232,-0.215 -0.502,-0.324 -0.801,-0.324 -0.254,0 -0.499,0.121 -0.749,0.368 -0.244,0.247 -0.505,0.608 -0.781,1.074"
           style="fill:#f14740;fill-opacity:1;fill-rule:nonzero;stroke:none"
           id="path38" />
        <path
           d="m 327.999,26.02 v -7.402 c 0,-0.516 -0.119,-0.903 -0.351,-1.167 -0.233,-0.258 -0.528,-0.391 -0.888,-0.391 -0.36,0 -0.656,0.133 -0.878,0.402 -0.226,0.272 -0.338,0.654 -0.338,1.156 v 7.33 c 0,0.501 0.112,0.885 0.338,1.142 0.222,0.259 0.518,0.389 0.878,0.389 0.36,0 0.655,-0.13 0.888,-0.389 0.232,-0.257 0.351,-0.611 0.351,-1.07 m -1.214,2.652 c -0.34,0 -0.63,0.106 -0.875,0.333 -0.243,0.217 -0.366,0.531 -0.366,0.931 0,0.361 0.126,0.656 0.376,0.897 0.247,0.233 0.537,0.345 0.865,0.345 0.316,0 0.601,-0.104 0.848,-0.316 0.242,-0.212 0.366,-0.525 0.366,-0.926 0,-0.399 -0.12,-0.705 -0.359,-0.925 -0.242,-0.223 -0.526,-0.339 -0.855,-0.339"
           style="fill:#f14740;fill-opacity:1;fill-rule:nonzero;stroke:none"
           id="path40" />
        <path
           d="m 332.769,26.058 v -0.307 c 0.426,0.592 0.901,1.029 1.411,1.306 0.514,0.28 1.101,0.422 1.773,0.422 0.644,0 1.223,-0.148 1.736,-0.447 0.505,-0.291 0.889,-0.703 1.139,-1.242 0.161,-0.314 0.264,-0.656 0.315,-1.016 0.045,-0.362 0.073,-0.824 0.073,-1.389 v -4.767 c 0,-0.516 -0.117,-0.903 -0.339,-1.167 -0.226,-0.258 -0.519,-0.391 -0.876,-0.391 -0.364,0 -0.663,0.133 -0.884,0.403 -0.229,0.271 -0.346,0.653 -0.346,1.155 v 4.268 c 0,0.847 -0.109,1.492 -0.334,1.94 -0.231,0.447 -0.678,0.672 -1.35,0.672 -0.437,0 -0.836,-0.137 -1.196,-0.412 -0.36,-0.268 -0.622,-0.643 -0.79,-1.12 -0.121,-0.379 -0.183,-1.092 -0.183,-2.143 v -3.205 c 0,-0.517 -0.113,-0.91 -0.346,-1.173 -0.232,-0.255 -0.529,-0.385 -0.893,-0.385 -0.353,0 -0.646,0.133 -0.872,0.402 -0.232,0.272 -0.343,0.654 -0.343,1.156 v 7.402 c 0,0.491 0.1,0.852 0.307,1.094 0.201,0.24 0.485,0.365 0.835,0.365 0.215,0 0.413,-0.059 0.582,-0.163 0.18,-0.104 0.315,-0.268 0.42,-0.473 0.102,-0.22 0.161,-0.477 0.161,-0.785"
           style="fill:#f14740;fill-opacity:1;fill-rule:nonzero;stroke:none"
           id="path42" />
        <path
           d="m 343.155,25.881 1.984,-5.817 2.14,6.071 c 0.172,0.488 0.335,0.83 0.499,1.036 0.164,0.201 0.406,0.308 0.734,0.308 0.314,0 0.579,-0.113 0.801,-0.334 0.216,-0.219 0.328,-0.467 0.328,-0.761 0,-0.111 -0.023,-0.24 -0.061,-0.387 -0.036,-0.155 -0.082,-0.297 -0.135,-0.43 -0.051,-0.128 -0.104,-0.28 -0.174,-0.446 l -2.357,-6.1 c -0.066,-0.174 -0.153,-0.4 -0.256,-0.668 -0.108,-0.267 -0.225,-0.496 -0.352,-0.694 -0.131,-0.187 -0.288,-0.333 -0.475,-0.44 -0.191,-0.105 -0.422,-0.159 -0.692,-0.159 -0.347,0 -0.625,0.081 -0.832,0.246 -0.209,0.166 -0.363,0.345 -0.458,0.547 -0.099,0.194 -0.268,0.585 -0.5,1.168 l -2.34,6.033 c -0.055,0.15 -0.111,0.301 -0.17,0.449 -0.055,0.151 -0.099,0.301 -0.141,0.461 -0.036,0.159 -0.058,0.293 -0.058,0.402 0,0.178 0.05,0.351 0.155,0.522 0.101,0.174 0.244,0.318 0.423,0.424 0.181,0.108 0.372,0.167 0.585,0.167 0.405,0 0.687,-0.125 0.84,-0.374 0.154,-0.241 0.325,-0.649 0.512,-1.224"
           style="fill:#f14740;fill-opacity:1;fill-rule:nonzero;stroke:none"
           id="path44" />
        <path
           d="m 353.198,23.098 h 4.451 c -0.058,0.875 -0.283,1.531 -0.678,1.964 -0.395,0.431 -0.911,0.649 -1.553,0.649 -0.608,0 -1.112,-0.22 -1.503,-0.659 -0.394,-0.44 -0.628,-1.092 -0.717,-1.954 m 4.805,-1.455 h -4.805 c 0.002,-0.587 0.119,-1.098 0.334,-1.547 0.223,-0.44 0.513,-0.773 0.874,-1 0.364,-0.229 0.766,-0.337 1.203,-0.337 0.292,0 0.563,0.035 0.804,0.104 0.243,0.076 0.479,0.189 0.709,0.34 0.224,0.152 0.433,0.316 0.626,0.496 0.19,0.172 0.445,0.407 0.745,0.709 0.129,0.119 0.309,0.171 0.54,0.171 0.255,0 0.458,-0.07 0.613,-0.216 0.158,-0.144 0.233,-0.345 0.233,-0.606 0,-0.234 -0.086,-0.506 -0.263,-0.818 -0.172,-0.306 -0.428,-0.604 -0.785,-0.892 -0.352,-0.282 -0.793,-0.517 -1.323,-0.709 -0.528,-0.186 -1.135,-0.278 -1.829,-0.278 -1.576,0 -2.803,0.47 -3.676,1.406 -0.873,0.943 -1.311,2.212 -1.311,3.816 0,0.768 0.111,1.464 0.324,2.11 0.215,0.649 0.529,1.204 0.942,1.666 0.415,0.466 0.922,0.824 1.529,1.067 0.608,0.247 1.277,0.371 2.018,0.371 0.952,0 1.776,-0.211 2.464,-0.637 0.686,-0.421 1.201,-0.962 1.541,-1.631 0.344,-0.671 0.513,-1.353 0.513,-2.051 0,-0.64 -0.17,-1.058 -0.529,-1.248 -0.357,-0.194 -0.849,-0.286 -1.491,-0.286"
           style="fill:#f14740;fill-opacity:1;fill-rule:nonzero;stroke:none"
           id="path46" />
        <path
           d="m 370.899,20.232 c 0,-0.318 -0.088,-0.66 -0.275,-1.022 -0.184,-0.363 -0.459,-0.708 -0.836,-1.036 -0.374,-0.328 -0.849,-0.593 -1.42,-0.79 -0.566,-0.205 -1.211,-0.304 -1.921,-0.304 -1.52,0 -2.704,0.462 -3.553,1.382 -0.849,0.927 -1.279,2.16 -1.279,3.713 0,1.05 0.195,1.982 0.587,2.786 0.39,0.805 0.95,1.433 1.69,1.872 0.734,0.443 1.619,0.663 2.645,0.663 0.634,0 1.216,-0.099 1.75,-0.289 0.528,-0.195 0.976,-0.448 1.35,-0.751 0.368,-0.307 0.648,-0.634 0.846,-0.98 0.191,-0.348 0.29,-0.672 0.29,-0.973 0,-0.303 -0.108,-0.561 -0.333,-0.776 -0.216,-0.215 -0.481,-0.322 -0.792,-0.322 -0.206,0 -0.374,0.061 -0.504,0.17 -0.14,0.105 -0.29,0.278 -0.461,0.527 -0.299,0.472 -0.61,0.831 -0.936,1.074 -0.328,0.235 -0.743,0.359 -1.25,0.359 -0.72,0 -1.309,-0.301 -1.75,-0.89 -0.447,-0.596 -0.665,-1.405 -0.665,-2.429 0,-0.481 0.059,-0.93 0.169,-1.332 0.115,-0.404 0.281,-0.744 0.496,-1.032 0.217,-0.286 0.479,-0.5 0.785,-0.646 0.3,-0.148 0.637,-0.224 1.005,-0.224 0.49,0 0.914,0.118 1.265,0.358 0.348,0.239 0.662,0.602 0.932,1.086 0.149,0.293 0.308,0.516 0.483,0.683 0.173,0.161 0.385,0.239 0.639,0.239 0.297,0 0.549,-0.117 0.742,-0.352 0.202,-0.243 0.301,-0.495 0.301,-0.764"
           style="fill:#f14740;fill-opacity:1;fill-rule:nonzero;stroke:none"
           id="path48" />
        <path
           d="m 373.18,27.261 h 0.271 v 1.54 c 0,0.41 0.01,0.736 0.031,0.97 0.022,0.235 0.076,0.433 0.177,0.604 0.094,0.173 0.232,0.317 0.414,0.429 0.177,0.107 0.377,0.16 0.6,0.16 0.311,0 0.594,-0.122 0.845,-0.363 0.164,-0.166 0.273,-0.363 0.319,-0.595 0.044,-0.235 0.066,-0.571 0.066,-1.001 v -1.744 h 0.903 c 0.346,0 0.611,-0.087 0.795,-0.26 0.186,-0.172 0.275,-0.39 0.275,-0.66 0,-0.344 -0.13,-0.59 -0.394,-0.723 -0.258,-0.136 -0.632,-0.207 -1.119,-0.207 h -0.46 v -4.719 c 0,-0.401 0.013,-0.708 0.039,-0.926 0.032,-0.218 0.107,-0.394 0.222,-0.525 0.114,-0.135 0.304,-0.206 0.568,-0.206 0.146,0 0.338,0.027 0.587,0.082 0.242,0.054 0.434,0.08 0.576,0.08 0.196,0 0.377,-0.087 0.533,-0.245 0.157,-0.171 0.239,-0.372 0.239,-0.617 0,-0.412 -0.211,-0.728 -0.646,-0.948 -0.436,-0.218 -1.055,-0.327 -1.862,-0.327 -0.768,0 -1.351,0.133 -1.747,0.403 -0.394,0.271 -0.657,0.639 -0.774,1.121 -0.127,0.475 -0.187,1.108 -0.187,1.905 v 4.922 h -0.329 c -0.346,0 -0.616,0.087 -0.804,0.266 -0.188,0.174 -0.279,0.394 -0.279,0.664 0,0.27 0.098,0.488 0.29,0.66 0.197,0.173 0.481,0.26 0.851,0.26"
           style="fill:#f14740;fill-opacity:1;fill-rule:nonzero;stroke:none"
           id="path50" />
        <path
           d="m 386.287,22.264 c 0,1.04 -0.222,1.855 -0.659,2.436 -0.444,0.58 -1.032,0.875 -1.778,0.875 -0.48,0 -0.902,-0.133 -1.267,-0.391 -0.368,-0.262 -0.649,-0.644 -0.846,-1.153 -0.197,-0.501 -0.297,-1.091 -0.297,-1.767 0,-0.67 0.1,-1.255 0.295,-1.755 0.193,-0.499 0.47,-0.882 0.832,-1.152 0.363,-0.261 0.788,-0.392 1.283,-0.392 0.746,0 1.334,0.288 1.778,0.874 0.437,0.582 0.659,1.392 0.659,2.425 m 2.465,0 c 0,-0.762 -0.113,-1.464 -0.344,-2.115 -0.226,-0.637 -0.557,-1.193 -0.987,-1.658 -0.433,-0.464 -0.949,-0.808 -1.547,-1.063 -0.599,-0.247 -1.27,-0.368 -2.024,-0.368 -0.746,0 -1.414,0.121 -2.006,0.376 -0.594,0.248 -1.111,0.605 -1.541,1.072 -0.435,0.469 -0.766,1.015 -0.989,1.65 -0.223,0.639 -0.333,1.337 -0.333,2.11 0,0.775 0.11,1.485 0.333,2.127 0.236,0.646 0.557,1.195 0.983,1.656 0.428,0.453 0.943,0.807 1.547,1.053 0.61,0.247 1.277,0.375 2.006,0.375 0.746,0 1.417,-0.128 2.024,-0.378 0.606,-0.251 1.123,-0.611 1.555,-1.073 0.427,-0.462 0.763,-1.015 0.986,-1.654 0.224,-0.636 0.337,-1.342 0.337,-2.11"
           style="fill:#f14740;fill-opacity:1;fill-rule:nonzero;stroke:none"
           id="path52" />
        <path
           d="m 393.126,20.753 v -2.135 c 0,-0.517 -0.117,-0.91 -0.352,-1.173 -0.234,-0.255 -0.531,-0.385 -0.893,-0.385 -0.35,0 -0.644,0.133 -0.87,0.391 -0.228,0.264 -0.339,0.651 -0.339,1.167 v 7.131 c 0,1.154 0.396,1.73 1.194,1.73 0.404,0 0.701,-0.141 0.882,-0.407 0.178,-0.266 0.273,-0.667 0.298,-1.191 0.292,0.524 0.594,0.925 0.903,1.191 0.31,0.266 0.72,0.407 1.232,0.407 0.521,0 1.019,-0.141 1.507,-0.407 0.483,-0.266 0.729,-0.626 0.729,-1.069 0,-0.312 -0.107,-0.575 -0.313,-0.775 -0.204,-0.202 -0.429,-0.306 -0.67,-0.306 -0.09,0 -0.308,0.059 -0.653,0.178 -0.345,0.114 -0.65,0.173 -0.915,0.173 -0.357,0 -0.65,-0.097 -0.876,-0.298 -0.228,-0.2 -0.406,-0.488 -0.532,-0.874 -0.126,-0.394 -0.217,-0.852 -0.261,-1.391 -0.047,-0.53 -0.071,-1.181 -0.071,-1.957"
           style="fill:#f14740;fill-opacity:1;fill-rule:nonzero;stroke:none"
           id="path54" />
        <path
           d="m 406.203,20.405 c 0,-0.706 -0.165,-1.309 -0.499,-1.814 -0.331,-0.505 -0.816,-0.883 -1.461,-1.147 -0.646,-0.254 -1.429,-0.384 -2.357,-0.384 -0.874,0 -1.634,0.141 -2.265,0.422 -0.629,0.283 -1.096,0.631 -1.392,1.054 -0.302,0.42 -0.458,0.844 -0.458,1.268 0,0.281 0.101,0.524 0.296,0.723 0.191,0.202 0.435,0.301 0.725,0.301 0.259,0 0.459,-0.066 0.596,-0.196 0.14,-0.137 0.266,-0.319 0.396,-0.555 0.252,-0.461 0.551,-0.801 0.907,-1.025 0.344,-0.229 0.826,-0.34 1.435,-0.34 0.489,0 0.894,0.114 1.208,0.346 0.312,0.224 0.476,0.488 0.476,0.781 0,0.452 -0.166,0.783 -0.49,0.985 -0.332,0.211 -0.866,0.407 -1.618,0.594 -0.844,0.223 -1.533,0.451 -2.063,0.69 -0.533,0.241 -0.962,0.561 -1.277,0.955 -0.316,0.391 -0.478,0.879 -0.478,1.456 0,0.513 0.147,0.999 0.441,1.451 0.293,0.461 0.732,0.824 1.303,1.095 0.571,0.273 1.263,0.414 2.074,0.414 0.635,0 1.206,-0.075 1.715,-0.209 0.505,-0.138 0.933,-0.323 1.266,-0.553 0.339,-0.233 0.6,-0.488 0.775,-0.769 0.18,-0.286 0.268,-0.56 0.268,-0.827 0,-0.295 -0.094,-0.53 -0.286,-0.726 -0.189,-0.18 -0.461,-0.278 -0.803,-0.278 -0.254,0 -0.467,0.075 -0.646,0.23 -0.174,0.146 -0.38,0.37 -0.606,0.668 -0.186,0.252 -0.404,0.454 -0.658,0.603 -0.253,0.148 -0.595,0.224 -1.025,0.224 -0.444,0 -0.815,-0.096 -1.104,-0.296 -0.296,-0.196 -0.445,-0.443 -0.445,-0.737 0,-0.269 0.11,-0.49 0.323,-0.663 0.219,-0.172 0.507,-0.314 0.875,-0.428 0.367,-0.114 0.871,-0.252 1.512,-0.414 0.761,-0.192 1.384,-0.424 1.867,-0.695 0.483,-0.266 0.848,-0.583 1.096,-0.951 0.252,-0.37 0.377,-0.786 0.377,-1.253"
           style="fill:#f14740;fill-opacity:1;fill-rule:nonzero;stroke:none"
           id="path56" />
        <path
           d="m 408.989,17.06 c -0.37,0 -0.691,0.121 -0.958,0.376 -0.275,0.248 -0.407,0.6 -0.407,1.047 0,0.38 0.126,0.709 0.381,0.987 0.259,0.273 0.58,0.407 0.957,0.407 0.375,0 0.699,-0.134 0.96,-0.405 0.27,-0.269 0.406,-0.605 0.406,-0.989 0,-0.445 -0.136,-0.794 -0.406,-1.044 -0.261,-0.254 -0.571,-0.379 -0.933,-0.379"
           style="fill:#f14740;fill-opacity:1;fill-rule:nonzero;stroke:none"
           id="path58" />
        <path
           d="m 419.847,22.264 c 0,1.04 -0.222,1.855 -0.662,2.436 -0.441,0.58 -1.031,0.875 -1.774,0.875 -0.48,0 -0.898,-0.133 -1.266,-0.391 -0.368,-0.262 -0.648,-0.644 -0.844,-1.153 -0.196,-0.501 -0.297,-1.091 -0.297,-1.767 0,-0.67 0.095,-1.255 0.288,-1.755 0.201,-0.499 0.478,-0.882 0.842,-1.152 0.359,-0.261 0.787,-0.392 1.277,-0.392 0.743,0 1.333,0.288 1.774,0.874 0.44,0.582 0.662,1.392 0.662,2.425 m 2.467,0 c 0,-0.762 -0.112,-1.464 -0.344,-2.115 -0.229,-0.637 -0.557,-1.193 -0.989,-1.658 -0.433,-0.464 -0.943,-0.808 -1.546,-1.063 -0.598,-0.247 -1.272,-0.368 -2.024,-0.368 -0.743,0 -1.412,0.121 -2.006,0.376 -0.592,0.248 -1.103,0.605 -1.537,1.072 -0.44,0.469 -0.768,1.015 -0.997,1.65 -0.22,0.639 -0.333,1.337 -0.333,2.11 0,0.775 0.113,1.485 0.342,2.127 0.232,0.646 0.554,1.195 0.977,1.656 0.426,0.453 0.943,0.807 1.548,1.053 0.608,0.247 1.272,0.375 2.006,0.375 0.743,0 1.417,-0.128 2.024,-0.378 0.608,-0.251 1.125,-0.611 1.557,-1.073 0.43,-0.462 0.757,-1.015 0.985,-1.654 0.225,-0.636 0.337,-1.342 0.337,-2.11"
           style="fill:#f14740;fill-opacity:1;fill-rule:nonzero;stroke:none"
           id="path60" />
        <path
           d="m 426.687,20.753 v -2.135 c 0,-0.517 -0.118,-0.91 -0.35,-1.173 -0.233,-0.255 -0.531,-0.385 -0.888,-0.385 -0.361,0 -0.646,0.133 -0.878,0.391 -0.227,0.264 -0.341,0.651 -0.341,1.167 v 7.131 c 0,1.154 0.405,1.73 1.199,1.73 0.408,0 0.699,-0.141 0.879,-0.407 0.176,-0.266 0.282,-0.667 0.301,-1.191 0.29,0.524 0.59,0.925 0.9,1.191 0.308,0.266 0.722,0.407 1.233,0.407 0.523,0 1.025,-0.141 1.504,-0.407 0.487,-0.266 0.732,-0.626 0.732,-1.069 0,-0.312 -0.105,-0.575 -0.309,-0.775 -0.211,-0.202 -0.43,-0.306 -0.675,-0.306 -0.087,0 -0.303,0.059 -0.649,0.178 -0.344,0.114 -0.649,0.173 -0.915,0.173 -0.358,0 -0.649,-0.097 -0.883,-0.298 -0.224,-0.2 -0.402,-0.488 -0.528,-0.874 -0.124,-0.394 -0.214,-0.852 -0.26,-1.391 -0.047,-0.53 -0.072,-1.181 -0.072,-1.957"
           style="fill:#f14740;fill-opacity:1;fill-rule:nonzero;stroke:none"
           id="path62" />
        <path
           d="m 433.774,22.35 c 0,-1.035 0.218,-1.821 0.656,-2.357 0.431,-0.528 0.997,-0.796 1.68,-0.796 0.407,0 0.796,0.117 1.158,0.346 0.363,0.229 0.659,0.572 0.888,1.03 0.229,0.462 0.341,1.021 0.341,1.674 0,1.045 -0.223,1.859 -0.663,2.441 -0.438,0.585 -1.021,0.878 -1.737,0.878 -0.699,0 -1.264,-0.286 -1.684,-0.839 -0.427,-0.559 -0.639,-1.348 -0.639,-2.377 m 7.118,3.252 v -7.447 c 0,-0.852 -0.093,-1.584 -0.264,-2.193 -0.174,-0.619 -0.453,-1.123 -0.836,-1.524 -0.383,-0.402 -0.888,-0.696 -1.505,-0.892 -0.621,-0.188 -1.394,-0.287 -2.314,-0.287 -0.851,0 -1.607,0.119 -2.27,0.365 -0.666,0.255 -1.178,0.568 -1.537,0.961 -0.361,0.389 -0.542,0.792 -0.542,1.209 0,0.311 0.101,0.566 0.31,0.762 0.201,0.201 0.447,0.298 0.734,0.298 0.362,0 0.673,-0.166 0.947,-0.497 0.132,-0.172 0.27,-0.34 0.408,-0.511 0.139,-0.176 0.295,-0.324 0.467,-0.442 0.17,-0.126 0.379,-0.216 0.619,-0.277 0.235,-0.059 0.513,-0.088 0.827,-0.088 0.63,0 1.129,0.094 1.477,0.278 0.353,0.183 0.598,0.44 0.742,0.772 0.136,0.331 0.224,0.683 0.239,1.065 0.029,0.384 0.044,0.988 0.061,1.828 -0.377,-0.547 -0.819,-0.968 -1.309,-1.255 -0.494,-0.288 -1.085,-0.429 -1.764,-0.429 -0.827,0 -1.547,0.214 -2.156,0.656 -0.619,0.438 -1.091,1.049 -1.421,1.841 -0.326,0.784 -0.494,1.695 -0.494,2.728 0,0.775 0.098,1.469 0.304,2.089 0.197,0.616 0.482,1.139 0.858,1.565 0.368,0.427 0.801,0.748 1.285,0.966 0.489,0.211 1.015,0.324 1.602,0.324 0.693,0 1.297,-0.143 1.805,-0.423 0.515,-0.275 0.984,-0.715 1.421,-1.309 v 0.345 c 0,0.447 0.109,0.787 0.315,1.039 0.21,0.241 0.482,0.365 0.809,0.365 0.477,0 0.791,-0.16 0.949,-0.483 0.153,-0.323 0.233,-0.792 0.233,-1.399"
           style="fill:#f14740;fill-opacity:1;fill-rule:nonzero;stroke:none"
           id="path64" />
        <path
           d="m 334.479,50.551 h 3.644 c -0.259,-1.965 -1.061,-3.497 -2.4,-4.6 -1.24,-1.078 -2.74,-1.611 -4.492,-1.611 -2.377,0 -4.274,0.834 -5.691,2.502 -1.344,1.585 -2.015,3.633 -2.015,6.136 0,2.562 0.667,4.611 1.996,6.163 1.326,1.545 3.206,2.322 5.63,2.322 1.805,0 3.332,-0.488 4.572,-1.458 1.314,-1.046 2.115,-2.517 2.4,-4.403 h -3.644 c -0.312,1.643 -1.317,2.463 -3.026,2.463 -2.813,0 -4.224,-1.667 -4.224,-5.002 0,-1.564 0.363,-2.84 1.086,-3.836 0.726,-0.998 1.745,-1.497 3.063,-1.497 1.962,0 2.997,0.941 3.101,2.821 m -14.334,2.297 c 0,-3.259 1.034,-6.018 3.098,-8.264 2.066,-2.249 4.593,-3.374 7.595,-3.374 2.989,0 5.52,1.125 7.584,3.374 2.068,2.246 3.097,5.005 3.097,8.264 0,3.257 -1.029,6.014 -3.097,8.263 -2.064,2.249 -4.595,3.375 -7.584,3.375 -3.002,0 -5.529,-1.126 -7.595,-3.375 -2.064,-2.249 -3.098,-5.006 -3.098,-8.263 m -3.699,0 c 0,4.147 1.402,7.686 4.213,10.629 2.812,2.933 6.205,4.401 10.179,4.401 3.968,0 7.356,-1.468 10.171,-4.401 2.811,-2.943 4.219,-6.482 4.219,-10.629 0,-4.15 -1.408,-7.695 -4.219,-10.628 -2.815,-2.938 -6.203,-4.408 -10.171,-4.408 -3.974,0 -7.367,1.47 -10.179,4.408 -2.811,2.933 -4.213,6.478 -4.213,10.628"
           style="fill:#f14740;fill-opacity:1;fill-rule:nonzero;stroke:none"
           id="path66" />
        <path
           d="m 322.269,43.421 2.098,-1.78 15.436,19.819 -2.099,1.778 z"
           style="fill:#f14740;fill-opacity:1;fill-rule:nonzero;stroke:none"
           id="path68" />
        <path
           d="m 355.437,529.55 c 134.972,0 244.388,-109.418 244.388,-244.389 0,-65.954 -26.137,-125.796 -68.603,-169.761 H 179.653 c -42.468,43.965 -68.605,103.807 -68.605,169.761 0,134.971 109.417,244.389 244.389,244.389"
           style="fill:#e4ecd1;fill-opacity:1;fill-rule:evenodd;stroke:none"
           id="path70" />
        <path
           d="m 304.371,541.031 h 50.452 V 497.78 h 23.378 l -24.302,-42.116 -24.302,-42.119 -24.3,42.119 -24.304,42.116 h 23.378 z"
           style="fill:#ffffff;fill-opacity:1;fill-rule:evenodd;stroke:none"
           id="path72" />
        <path
           d="m 102.432,391.312 174.496,-87.068 51.808,21.587 139.043,-63.667 2.714,-37.073 164.062,-15.832 -13.653,72.365 -86.368,13.624 -183.85,100.74 -163.703,52.89 z"
           style="fill:#c21e24;fill-opacity:1;fill-rule:evenodd;stroke:none"
           id="path74" />
        <path
           d="m 116.084,454.333 165.542,-82.599 49.151,20.479 158.034,-72.359 -23.553,-23.211 155.644,-15.019 -76.281,103.045 -18.607,-21.468 -174.416,95.57 -31.48,-11.078 -123.823,61.253 z"
           style="fill:#f14740;fill-opacity:1;fill-rule:evenodd;stroke:none"
           id="path76" />
        <path
           d="m 328.736,325.831 2.041,66.382 158.034,-72.359 -23.553,-23.211 2.521,-34.479 z m -226.304,65.481 13.652,63.021 165.542,-82.599 -4.698,-67.49 z"
           style="fill:#ec1c24;fill-opacity:1;fill-rule:evenodd;stroke:none"
           id="path78" />
        <path
           d="m 368.493,256.88 c 32.993,0 59.903,26.908 59.903,59.903 0,32.991 -26.91,59.901 -59.903,59.901 -32.993,0 -59.903,-26.91 -59.903,-59.901 0,-32.995 26.91,-59.903 59.903,-59.903"
           style="fill:#2f2825;fill-opacity:1;fill-rule:evenodd;stroke:none"
           id="path80" />
        <path
           d="m 320.709,229.574 c 32.991,0 59.901,26.908 59.901,59.902 0,32.995 -26.91,59.902 -59.901,59.902 -32.995,0 -59.903,-26.907 -59.903,-59.902 0,-32.994 26.908,-59.902 59.903,-59.902"
           style="fill:#ffffff;fill-opacity:1;fill-rule:evenodd;stroke:none"
           id="path82" />
        <path
           d="m 320.709,229.574 c 32.991,0 59.901,26.908 59.901,59.902 0,32.995 -26.91,59.902 -59.901,59.902 -32.995,0 -59.903,-26.907 -59.903,-59.902 0,-32.994 26.908,-59.902 59.903,-59.902"
           style="fill:#ffffff;fill-opacity:1;fill-rule:evenodd;stroke:none"
           id="path84" />
        <path
           d="m 320.709,331.799 c 100.346,0 181.742,-75.778 182.254,-169.434 28.924,-12.989 50.593,-29.054 62.133,-46.965 H 496.219 145.196 76.319 c 11.54,17.911 33.208,33.976 62.134,46.965 0.511,93.656 81.907,169.434 182.256,169.434"
           style="fill:#463d3b;fill-opacity:1;fill-rule:evenodd;stroke:none"
           id="path86" />
        <path
           d="m 368.098,325.973 c 77.388,-19.424 134.437,-85.254 134.865,-163.608 28.924,-12.989 50.593,-29.054 62.133,-46.965 H 496.219 310.47 l -158.887,44.879 181.569,0.513 c 34.085,7.383 61.182,33.2 70.21,66.887 9.026,33.684 -1.534,69.592 -27.36,93.028 z"
           style="fill:#2f2825;fill-opacity:1;fill-rule:evenodd;stroke:none"
           id="path88" />
        <path
           d="m 41.851,115.4 h 114.457 v 27.191 H 41.851 Z"
           style="fill:#f39c0f;fill-opacity:1;fill-rule:evenodd;stroke:none"
           id="path90" />
        <path
           d="m 41.851,136.563 h 114.457 v 6.029 H 41.851 Z"
           style="fill:#df8c16;fill-opacity:1;fill-rule:evenodd;stroke:none"
           id="path92" />
        <path
           d="m 124.451,138.98 h 19.338 v -19.967 h -19.338 z m -70.995,0 H 77.235 V 119.013 H 53.456 Z"
           style="fill:#fbca07;fill-opacity:1;fill-rule:evenodd;stroke:none"
           id="path94" />
        <path
           d="m 143.79,136.563 h -19.338 v 2.418 h 19.338 z m -90.334,2.417 h 23.779 v -2.418 H 53.456 Z"
           style="fill:#fab40a;fill-opacity:1;fill-rule:evenodd;stroke:none"
           id="path96" />
        <path
           d="m 30.701,142.592 h 114.457 v 27.192 H 30.701 Z"
           style="fill:#f39c0f;fill-opacity:1;fill-rule:evenodd;stroke:none"
           id="path98" />
        <path
           d="m 30.701,163.755 h 114.457 v 6.029 H 30.701 Z"
           style="fill:#df8c16;fill-opacity:1;fill-rule:evenodd;stroke:none"
           id="path100" />
        <path
           d="m 113.301,166.171 h 19.339 v -19.966 h -19.339 z m -70.995,0 H 66.085 V 146.205 H 42.306 Z"
           style="fill:#fbca07;fill-opacity:1;fill-rule:evenodd;stroke:none"
           id="path102" />
        <path
           d="m 132.64,163.755 h -19.339 v 2.416 h 19.339 z m -90.334,2.416 h 23.779 v -2.416 H 42.306 Z"
           style="fill:#fab40a;fill-opacity:1;fill-rule:evenodd;stroke:none"
           id="path104" />
        <path
           d="m 51.519,169.784 h 114.458 v 27.192 H 51.519 Z"
           style="fill:#f39c0f;fill-opacity:1;fill-rule:evenodd;stroke:none"
           id="path106" />
        <path
           d="m 51.519,190.947 h 114.458 v 6.029 H 51.519 Z"
           style="fill:#df8c16;fill-opacity:1;fill-rule:evenodd;stroke:none"
           id="path108" />
        <path
           d="m 134.119,193.363 h 19.338 v -19.966 h -19.338 z m -70.995,0 h 23.78 v -19.966 h -23.78 z"
           style="fill:#fbca07;fill-opacity:1;fill-rule:evenodd;stroke:none"
           id="path110" />
        <path
           d="M 153.458,190.947 H 134.12 v 2.416 h 19.338 z m -90.334,2.416 h 23.78 v -2.416 h -23.78 z"
           style="fill:#fab40a;fill-opacity:1;fill-rule:evenodd;stroke:none"
           id="path112" />
        <path
           d="m 27.285,196.977 h 114.458 v 27.192 H 27.285 Z"
           style="fill:#f39c0f;fill-opacity:1;fill-rule:evenodd;stroke:none"
           id="path114" />
        <path
           d="m 27.285,218.14 h 114.458 v 6.029 H 27.285 Z"
           style="fill:#df8c16;fill-opacity:1;fill-rule:evenodd;stroke:none"
           id="path116" />
        <path
           d="m 109.885,220.556 h 19.338 V 200.59 h -19.338 z m -70.996,0 H 62.668 V 200.59 H 38.889 Z"
           style="fill:#fbca07;fill-opacity:1;fill-rule:evenodd;stroke:none"
           id="path118" />
        <path
           d="m 129.223,218.14 h -19.338 v 2.416 h 19.338 z m -90.334,2.416 H 62.668 V 218.14 H 38.889 Z"
           style="fill:#fab40a;fill-opacity:1;fill-rule:evenodd;stroke:none"
           id="path120" />
        <path
           d="M 378.283,115.4 H 492.74 v 27.191 H 378.283 Z"
           style="fill:#f39c0f;fill-opacity:1;fill-rule:evenodd;stroke:none"
           id="path122" />
        <path
           d="M 378.283,136.563 H 492.74 v 6.029 H 378.283 Z"
           style="fill:#df8c16;fill-opacity:1;fill-rule:evenodd;stroke:none"
           id="path124" />
        <path
           d="m 460.884,138.98 h 19.338 v -19.967 h -19.338 z m -70.995,0 h 23.777 v -19.967 h -23.777 z"
           style="fill:#fbca07;fill-opacity:1;fill-rule:evenodd;stroke:none"
           id="path126" />
        <path
           d="m 480.222,136.563 h -19.338 v 2.418 h 19.338 z m -90.333,2.417 h 23.777 v -2.418 h -23.777 z"
           style="fill:#fab40a;fill-opacity:1;fill-rule:evenodd;stroke:none"
           id="path128" />
        <path
           d="M 367.133,142.592 H 481.59 v 27.192 H 367.133 Z"
           style="fill:#f39c0f;fill-opacity:1;fill-rule:evenodd;stroke:none"
           id="path130" />
        <path
           d="M 367.133,163.755 H 481.59 v 6.029 H 367.133 Z"
           style="fill:#df8c16;fill-opacity:1;fill-rule:evenodd;stroke:none"
           id="path132" />
        <path
           d="m 449.733,166.171 h 19.34 v -19.966 h -19.34 z m -70.995,0 h 23.778 v -19.966 h -23.778 z"
           style="fill:#fbca07;fill-opacity:1;fill-rule:evenodd;stroke:none"
           id="path134" />
        <path
           d="m 469.073,163.755 h -19.34 v 2.416 h 19.34 z m -90.335,2.416 h 23.778 v -2.416 h -23.778 z"
           style="fill:#fab40a;fill-opacity:1;fill-rule:evenodd;stroke:none"
           id="path136" />
        <path
           d="M 378.283,169.784 H 492.74 v 27.192 H 378.283 Z"
           style="fill:#f39c0f;fill-opacity:1;fill-rule:evenodd;stroke:none"
           id="path138" />
        <path
           d="M 378.283,190.947 H 492.74 v 6.029 H 378.283 Z"
           style="fill:#df8c16;fill-opacity:1;fill-rule:evenodd;stroke:none"
           id="path140" />
        <path
           d="m 460.884,193.363 h 19.34 v -19.966 h -19.34 z m -70.995,0 h 23.777 v -19.966 h -23.777 z"
           style="fill:#fbca07;fill-opacity:1;fill-rule:evenodd;stroke:none"
           id="path142" />
        <path
           d="m 480.224,190.947 h -19.34 v 2.416 h 19.34 z m -90.335,2.416 h 23.777 v -2.416 h -23.777 z"
           style="fill:#fab40a;fill-opacity:1;fill-rule:evenodd;stroke:none"
           id="path144" />
        <path
           d="m 234.126,115.4 h 114.457 v 27.191 H 234.126 Z"
           style="fill:#f39c0f;fill-opacity:1;fill-rule:evenodd;stroke:none"
           id="path146" />
        <path
           d="m 234.126,136.563 h 114.457 v 6.029 H 234.126 Z"
           style="fill:#df8c16;fill-opacity:1;fill-rule:evenodd;stroke:none"
           id="path148" />
        <path
           d="m 316.728,138.98 h 19.34 v -19.967 h -19.34 z m -70.996,0 h 23.778 v -19.967 h -23.778 z"
           style="fill:#fbca07;fill-opacity:1;fill-rule:evenodd;stroke:none"
           id="path150" />
        <path
           d="m 336.067,136.563 h -19.34 v 2.418 h 19.34 z m -90.335,2.417 h 23.778 v -2.418 h -23.778 z"
           style="fill:#fab40a;fill-opacity:1;fill-rule:evenodd;stroke:none"
           id="path152" />
        <path
           d="m 263.897,212.946 c 4.107,-0.79 8.221,-1.581 12.336,-2.373 0.801,4.208 1.635,8.41 2.515,12.615 6.789,0.074 12.351,2.048 16.536,5.416 4.198,3.377 7.024,8.189 8.544,13.944 3.023,11.449 -3.432,18.443 -10.219,24.017 -6.708,5.511 -13.832,9.658 -11.735,15.24 1.983,5.288 5.996,6.905 11.713,5.804 2.51,-0.483 4.492,-1.413 6.22,-2.79 1.724,-1.377 3.198,-3.234 4.657,-5.594 4.138,2.726 8.26,5.455 12.412,8.191 -1.431,2.86 -3.122,5.49 -5.342,7.706 -2.214,2.214 -4.959,4.037 -8.492,5.286 1.66,3.926 3.358,7.844 5.08,11.758 -3.732,0.718 -7.459,1.435 -11.182,2.15 -1.829,-3.979 -3.613,-7.965 -5.368,-11.949 -5.992,-0.041 -11.568,-1.714 -16.256,-4.799 -4.68,-3.086 -8.505,-7.568 -10.733,-13.319 -4.089,-10.55 2.184,-17.386 8.953,-23.062 6.83,-5.731 14.087,-10.297 12.42,-16.46 -1.487,-5.502 -5.292,-7.677 -12.31,-6.326 -3.015,0.579 -5.734,1.727 -8.35,3.459 -2.608,1.729 -5.094,4.04 -7.626,6.929 -3.786,-3.429 -7.551,-6.862 -11.284,-10.303 2.281,-3.154 5.467,-5.945 8.978,-8.224 3.52,-2.283 7.369,-4.056 11.012,-5.2 -0.862,-4.034 -1.688,-8.079 -2.479,-12.116"
           style="fill:#ffffff;fill-opacity:1;fill-rule:evenodd;stroke:none"
           id="path154" />
        <path
           d="m 136.882,337.193 h 16.552 v -47.112 h 7.67 l -7.973,-13.817 -7.973,-13.82 -7.973,13.82 -7.974,13.817 h 7.671 z"
           style="fill:#ffffff;fill-opacity:1;fill-rule:evenodd;stroke:none"
           id="path156" />
        <path
           d="m 458.951,529.55 h 28.646 v -81.534 h 13.274 l -13.799,-23.913 -13.799,-23.914 -13.797,23.914 -13.797,23.913 h 13.272 z"
           style="fill:#ffffff;fill-opacity:1;fill-rule:evenodd;stroke:none"
           id="path158" />
      </g>
    </g>
  </g>
</svg>
